<?xml version="1.0" standalone="no"?>
<!DOCTYPE svg PUBLIC "-//W3C//DTD SVG 20010904//EN"
 "http://www.w3.org/TR/2001/REC-SVG-20010904/DTD/svg10.dtd">
<svg version="1.0" xmlns="http://www.w3.org/2000/svg"
 width="64.000000pt" height="64.000000pt" viewBox="0 0 64.000000 64.000000"
 preserveAspectRatio="xMidYMid meet">

<g transform="translate(0.000000,64.000000) scale(0.100000,-0.100000)"
fill="#000000" stroke="none">
<path d="M240 547 c-49 -16 -133 -102 -148 -153 -28 -94 -8 -169 63 -239 102
-103 243 -101 338 5 90 100 90 220 0 320 -65 72 -158 97 -253 67z m190 -61
c59 -39 85 -89 85 -166 0 -78 -26 -127 -88 -168 -56 -37 -153 -39 -210 -3 -76
47 -111 140 -88 229 14 51 75 117 123 131 53 16 135 6 178 -23z"/>
<path d="M300 390 l0 -90 70 0 c63 0 70 2 70 20 0 17 -7 20 -50 20 l-50 0 0
70 c0 63 -2 70 -20 70 -19 0 -20 -7 -20 -90z"/>
</g>
</svg>
