<?xml version="1.0" standalone="no"?>
<!DOCTYPE svg PUBLIC "-//W3C//DTD SVG 20010904//EN"
 "http://www.w3.org/TR/2001/REC-SVG-20010904/DTD/svg10.dtd">
<svg version="1.0" xmlns="http://www.w3.org/2000/svg"
 width="64.000000pt" height="64.000000pt" viewBox="0 0 64.000000 64.000000"
 preserveAspectRatio="xMidYMid meet">

<g transform="translate(0.000000,64.000000) scale(0.100000,-0.100000)"
fill="#000000" stroke="none">
<path d="M106 530 c-25 -27 -46 -58 -46 -69 0 -65 107 -224 197 -295 65 -51
170 -106 202 -106 28 0 121 86 121 112 0 23 -100 128 -122 128 -9 0 -31 -12
-48 -26 -28 -24 -33 -26 -57 -13 -28 15 -103 96 -103 111 0 6 11 23 25 40 14
16 25 36 25 44 0 23 -104 124 -127 124 -11 0 -40 -21 -67 -50z m122 -107 l-32
-33 24 -46 c27 -50 79 -99 135 -130 l35 -18 33 32 33 32 44 -45 44 -45 -34
-35 c-19 -19 -40 -35 -47 -35 -31 0 -148 67 -202 117 -63 56 -124 140 -149
204 l-15 40 38 39 39 40 43 -42 43 -42 -32 -33z"/>
</g>
</svg>
