<svg width="198" height="99" xmlns="http://www.w3.org/2000/svg" xmlns:xlink="http://www.w3.org/1999/xlink" overflow="hidden"><defs><clipPath id="clip0"><rect x="0" y="0" width="198" height="99"/></clipPath></defs><g clip-path="url(#clip0)"><path d="M173.504 95.1832C171.942 94.9228 170.119 94.3369 168.068 93.3929 165.822 92.3512 163.543 91.3095 159.019 89.1936 150.229 85.092 136.72 79.2326 128.973 76.1401 120.704 72.8197 107.39 68.2624 103.842 67.5137 103.224 67.3835 102.866 67.2207 103.061 67.1556 103.549 66.9929 110.418 68.6205 116.147 70.2806 126.466 73.2755 139.747 78.3211 158.172 86.2964 158.953 86.6545 159.865 86.8498 160.19 86.7522 161.362 86.3615 164.65 81.0229 164.325 80.0138 164.162 79.5906 163.673 79.4279 147.69 74.8054 140.724 72.7872 135.19 71.0945 135.385 71.0294 135.581 70.9642 138.413 71.5176 141.668 72.2338 155.698 75.3263 160.516 76.1726 163.966 76.1726 166.343 76.1726 166.636 76.1075 167.352 75.3263 168.166 74.4473 169.631 73.5684 170.282 73.5684 170.477 73.5684 170.282 74.0567 169.858 74.6427 168.654 76.2052 168.166 77.2794 166.864 81.2183 166.213 83.2039 165.301 85.3524 164.845 86.036 164.097 87.1753 164.064 87.3381 164.52 87.8589 164.78 88.1519 166.115 88.9657 167.45 89.6493 169.37 90.6585 169.989 90.8212 170.347 90.5282 170.965 90.04 171.454 86.5894 171.877 79.7534 172.3 73.4382 172.756 70.6062 172.821 74.2195 172.886 78.3536 171.974 88.6077 171.323 91.4072 171.226 91.7978 170.9 92.1233 170.607 92.1233 170.021 92.1233 165.496 89.4215 163.966 88.1519L163.055 87.4032 164.064 85.5803C165.008 83.8224 166.343 80.3393 166.343 79.6232 166.343 78.8745 165.692 80.0464 164.715 82.5855 163.999 84.4735 163.381 85.5477 162.502 86.329L161.297 87.4032 164.78 89.9423C169.045 93.0022 171.844 94.402 173.797 94.402 176.76 94.402 188.348 92.0582 189.097 91.2769 189.357 91.0165 188.609 91.1467 186.2 91.8303 183.791 92.4814 176.109 93.7509 174.448 93.7509 173.96 93.7509 173.244 93.4905 172.853 93.165 172.137 92.579 172.137 92.5465 172.495 87.566 173.016 80.4044 173.537 75.3588 173.83 74.8705 174.318 74.0893 177.899 73.5359 183.758 73.3731 186.981 73.2755 190.757 73.308 192.124 73.4708 194.501 73.7638 194.631 73.7312 194.794 73.1127 195.054 72.2012 193.687 71.127 191.571 70.5736 188.023 69.6621 179.299 70.2481 175.23 71.6478L173.504 72.2338 173.537 71.0294C173.569 69.9551 173.602 69.9226 173.83 70.6387 174.09 71.42 174.09 71.3874 174.123 70.4109 174.155 69.0762 174.806 68.9785 174.806 70.2806L174.806 71.2247 177.378 70.6387C180.405 69.9877 180.536 69.9226 181.154 68.653L181.675 67.709 185.679 67.709C190.366 67.709 191.603 68.0345 191.896 69.3041 192.027 69.9226 192.45 70.3783 193.199 70.7364 194.436 71.3223 194.891 71.0294 194.305 69.9551 194.045 69.4017 194.045 69.3041 194.338 69.4994 194.663 69.6947 194.729 69.2715 194.598 67.709 194.436 65.4629 194.11 65.0397 192.059 64.4212 190.366 63.8678 177.899 63.64 175.262 64.0957 172.723 64.5514 172.235 64.3561 174.025 63.5748 176.369 62.5657 190.659 62.7285 193.459 63.7702 195.054 64.3887 195.477 65.528 195.607 69.7273 195.673 71.8432 195.607 73.9265 195.51 74.3497 195.347 75.0658 195.217 75.0984 194.11 74.8705 191.506 74.3171 187.469 74.1869 183.107 74.5125 178.517 74.8705 174.904 75.4239 174.676 75.8146 174.481 76.1401 173.569 84.799 173.374 88.1519 173.179 91.4723 173.342 91.7327 174.969 90.4306 175.718 89.8446 176.76 88.0868 176.76 87.4032 176.76 87.3055 176.336 87.2404 175.783 87.2404L174.806 87.2404 174.806 84.6363 174.806 82.0321 176.629 82.0321 178.452 82.0321 178.322 85.2222C178.159 89.2261 177.638 90.3004 175.197 91.5048 174.253 91.9605 173.602 92.4163 173.732 92.5465 174.579 93.4254 185.451 91.6676 190.074 89.9423 191.31 89.454 191.603 89.161 192.417 87.4358 193.296 85.5803 193.361 85.5477 193.199 86.6871 193.068 87.3707 192.906 88.1519 192.808 88.4123 192.71 88.6728 192.775 88.8681 192.938 88.8681 193.492 88.8681 194.273 87.7613 194.598 86.5243 194.924 85.385 194.891 85.3199 194.077 85.2222 193.231 85.1245 193.199 85.0594 193.199 83.0086L193.199 80.8927 194.794 80.7951 196.389 80.6974 196.226 83.562C195.998 87.9892 195.477 88.7704 191.343 90.7561 187.372 92.7093 184.995 93.4905 180.731 94.3694 177.248 95.0856 174.741 95.346 173.504 95.1832Z" transform="matrix(1 0 0 -1.00371 0.0406905 99)"/><path d="M136.883 89.8121C131.089 86.5243 118.328 80.144 111.818 77.312 103.386 73.601 92.6441 69.597 85.6128 67.5462 80.73 66.1139 81.9344 66.1139 87.566 67.5137 105.665 72.1036 124.415 80.2091 137.208 88.9006 140.333 91.0491 142.612 92.7418 142.254 92.7418 142.156 92.7418 139.747 91.4072 136.883 89.8121Z" transform="matrix(1 0 0 -1.00371 0.0406905 99)"/><path d="M22.2984 80.8927C16.2111 80.0464 10.3842 77.3771 6.64069 73.7312 2.96227 70.1504 1.75783 66.8952 3.25524 64.7793 3.97139 63.7702 6.05475 62.6634 7.91023 62.3379 9.08212 62.11 9.11467 62.1425 9.66807 63.5097 9.96104 64.291 10.9376 66.4069 11.8165 68.1973 13.1512 70.8666 13.8999 71.9083 15.9507 73.9591 19.8244 77.8002 22.9169 79.0047 27.7998 78.6792 31.1527 78.4513 33.3011 77.7026 34.7985 76.2052 36.4912 74.5125 37.24 72.7872 37.3702 70.1504 37.6306 65.235 34.9938 60.7753 30.3714 58.4316 28.4183 57.455 25.7164 56.6412 24.2841 56.6412 23.5028 56.6412 23.4052 56.7388 23.5354 57.3899 23.633 57.7805 24.1213 60.1568 24.5771 62.6634 25.0328 65.1699 25.7164 68.7507 26.0745 70.6387 26.4 72.5268 26.6279 74.2195 26.5628 74.4148 26.3349 74.9682 22.4937 75.9122 21.3218 75.7169 20.7359 75.5867 20.0523 75.2612 19.7919 74.9356 19.1408 74.2195 18.5223 71.6804 14.4858 53.2232 12.2397 42.9692 10.7423 35.2543 10.5144 32.8779 10.3517 31.0224 10.4168 30.6644 11.1004 29.818 12.1746 28.4834 13.3139 28.1253 18.2945 27.637 30.4691 26.4977 40.8207 30.3388 44.0434 37.1748 45.7361 40.7231 45.8989 45.4432 44.4991 48.5031 43.4575 50.7166 40.7556 53.1255 37.9236 54.3951L35.4821 55.4693 37.5004 56.5435C41.7647 58.8222 43.9457 62.0449 44.5642 67.0905 45.0851 71.0619 44.2062 73.894 41.7647 76.3028 39.0303 79.0047 35.417 80.437 29.8831 81.0555 26.2047 81.4461 26.1396 81.4461 22.2984 80.8927ZM28.9391 53.3859C32.943 52.7023 36.0681 50.4237 36.947 47.4289 37.5329 45.4432 37.5329 44.076 36.9795 41.5043 35.417 34.2451 30.2086 30.6318 21.3544 30.5993 18.1968 30.5993 18.1642 30.5993 18.327 31.348 18.8153 33.2035 22.4612 51.9211 22.4612 52.4419 22.4612 53.1255 23.2424 53.3534 26.3674 53.6464 26.6279 53.6789 27.7998 53.5487 28.9391 53.3859Z" transform="matrix(1 0 0 -1.00371 0.0406905 99)"/><path d="M160.483 73.6335C158.237 72.7872 156.219 72.0059 156.024 71.8432 155.145 71.2572 151.336 62.403 149.285 56.1529 147.332 50.1307 146.356 45.8338 145.965 41.4718L145.737 39.0629 143.654 37.1097C140.887 34.5056 139.031 34.0824 138.055 35.8728 137.241 37.3051 137.99 40.7556 141.277 50.9445 142.026 53.2883 142.742 55.4367 142.807 55.7623 143.003 56.4459 142.905 56.4459 137.371 55.2089L134.279 54.5253 132.749 49.9679C129.786 41.0811 129.005 34.3753 130.535 31.1527 132.26 27.5068 134.962 27.0511 138.999 29.7203 140.236 30.5667 142.254 32.1943 143.491 33.3662L145.77 35.4821 146.323 33.7894C147.56 29.9482 149.969 27.9951 153.452 27.9951 156.935 27.9951 160.581 29.818 165.464 34.0173L167.645 35.8728 167.645 37.6631 167.645 39.421 164.813 36.9144C161.427 33.9847 159.995 33.2035 157.977 33.1383 156.675 33.1383 156.317 33.2686 155.568 34.1149 154.298 35.5147 153.875 37.4027 154.038 40.9184 154.168 43.8481 154.201 43.9783 155.308 45.1502 159.865 49.9679 164.162 56.9667 165.627 62.0123 166.506 65.0397 167.026 70.0528 166.668 71.9408 166.506 72.7546 166.375 73.5033 166.343 73.6661 166.343 73.9916 165.106 75.1961 164.813 75.1961 164.65 75.1635 162.729 74.4799 160.483 73.6335ZM164.097 70.5736C165.073 68.7507 163.673 62.5983 161.134 57.5201 159.019 53.3208 155.275 48.1125 155.275 49.382 155.275 50.6841 158.27 61.7194 159.474 64.9746 161.688 70.8015 163.055 72.4942 164.097 70.5736Z" transform="matrix(1 0 0 -1.00371 0.0406905 99)"/><path d="M134.051 70.7364C134.279 70.6387 134.572 70.6713 134.669 70.7689 134.8 70.8666 134.604 70.9642 134.246 70.9317 133.888 70.9317 133.79 70.834 134.051 70.7364Z" transform="matrix(1 0 0 -1.00371 0.0406905 99)"/><path d="M137.208 67.7741C136.883 66.9277 136.232 65.4629 135.711 64.5514L134.767 62.8261 136.102 62.1751C140.561 59.8964 144.598 62.0123 145.086 66.8952 145.184 67.8718 145.184 68.6856 145.119 68.6856 145.021 68.6856 144.402 68.4577 143.784 68.1973 142.189 67.5462 141.408 67.5788 139.455 68.4903L137.762 69.2715 137.208 67.7741Z" transform="matrix(1 0 0 -1.00371 0.0406905 99)"/><path d="M175.392 69.1088C175.62 69.0111 175.913 69.0437 176.011 69.1413 176.141 69.239 175.946 69.3366 175.588 69.3041 175.23 69.3041 175.132 69.2064 175.392 69.1088Z" transform="matrix(1 0 0 -1.00371 0.0406905 99)"/><path d="M176.694 68.7832C176.922 68.6856 177.215 68.7181 177.313 68.8158 177.443 68.9134 177.248 69.0111 176.89 68.9785 176.532 68.9785 176.434 68.8809 176.694 68.7832Z" transform="matrix(1 0 0 -1.00371 0.0406905 99)"/><path d="M80.9904 66.179C81.2183 66.0814 81.5112 66.1139 81.6089 66.2116 81.7391 66.3092 81.5438 66.4069 81.1857 66.3744 80.8276 66.3744 80.73 66.2767 80.9904 66.179Z" transform="matrix(1 0 0 -1.00371 0.0406905 99)"/><path d="M102.312 56.3157C101.726 56.1855 101.043 55.925 100.847 55.7623 100.619 55.5995 99.3174 54.8508 97.9502 54.1021L95.4437 52.7675 94.6298 54.0044C93.4254 55.7948 91.8954 56.4133 89.0634 56.2506 82.5855 55.8274 74.838 48.4705 73.2104 41.1788 72.8523 39.5837 72.5593 39.128 70.834 37.5329 67.3184 34.2777 65.7559 33.7568 64.4538 35.417 63.1517 37.0446 63.7051 39.4861 68.3275 52.3443 69.0762 54.3951 69.6621 56.1203 69.6621 56.1855 69.6621 56.2506 69.0111 56.3157 68.2298 56.3157 66.7975 56.3157 66.765 56.2831 65.6256 54.3951 64.1282 51.9536 61.0683 49.1216 59.3105 48.5356 58.5618 48.2752 57.8456 48.145 57.748 48.2427 57.6503 48.3729 57.8782 49.4146 58.2363 50.619 59.1152 53.3859 59.0826 54.3625 58.2037 55.5019 57.5852 56.3157 57.3573 56.3808 55.7948 56.2506 54.5904 56.1529 53.744 55.8599 52.9302 55.2414 51.4002 54.0695 50.033 51.1724 49.8703 48.7635 49.7401 46.8755 49.7401 46.8429 51.0422 45.5734L52.3768 44.3364 51.3677 42.9041C50.8143 42.1554 49.7726 40.8533 49.089 40.072 48.0474 38.9001 47.852 38.4118 47.852 37.24 47.852 36.2308 47.9822 35.8076 48.3078 35.8076 48.9263 35.8076 52.3117 39.4861 53.9719 41.9926 55.3065 43.9783 55.4693 44.1085 57.7154 44.8247 59.0175 45.2153 60.0592 45.5734 60.0917 45.5734 60.0917 45.5734 59.2779 43.9132 58.3014 41.9275 55.7297 36.7842 55.0787 33.5941 56.1529 31.2178 57.162 28.9065 58.5618 27.8974 60.7753 27.93 63.2493 27.9951 66.179 29.6227 70.476 33.3988L72.7872 35.3845 73.308 33.529C73.9265 31.4456 75.9122 28.9716 77.4747 28.3206 78.8419 27.7672 81.6414 28.0602 83.3667 28.9391 85.0594 29.818 87.7287 32.3245 89.6819 34.8962L91.0816 36.7517 91.3095 34.7334C91.6025 31.9665 92.3186 29.8506 93.2626 28.9716 94.402 27.8974 96.8109 27.7346 98.764 28.6136 102.898 30.4365 110.743 38.3467 115.496 45.4757 117.124 47.9497 117.351 48.1776 117.742 47.6567 117.97 47.3312 118.165 46.9731 118.165 46.8429 118.165 46.7453 119.109 44.9874 120.281 42.9366 121.453 40.9184 122.495 38.7699 122.592 38.1514 123.081 35.5798 120.965 32.3896 118.263 31.5758 116.375 30.9899 115.463 31.6409 114.259 34.3753 113.478 36.1006 113.185 36.4587 112.534 36.4587 111.622 36.4587 109.344 34.18 108.497 32.3896 107.976 31.2829 107.976 31.2178 108.595 30.3714 108.953 29.8831 109.897 29.1344 110.711 28.7112 111.915 28.0602 112.501 27.9625 114.584 28.0602 118.068 28.1904 120.737 29.5576 124.025 32.8454 127.052 35.8728 128.289 38.2491 128.517 41.4067 128.68 43.7179 128.419 44.4015 125.652 49.4797 124.578 51.4654 124.48 52.3443 125.066 54.5253 125.294 55.3065 125.359 56.0552 125.262 56.1529 125.099 56.3482 119.728 55.567 118.491 55.1763 118.23 55.0787 117.514 53.9068 116.896 52.5396 114.877 48.0799 110.939 42.6762 106.218 37.9236 103.224 34.9287 102.117 34.18 100.652 34.18 99.7406 34.18 99.5127 34.3428 99.0895 35.3194 98.6989 36.2634 98.6989 36.8819 98.9593 38.6723 99.2848 40.5928 101.173 47.5591 103.191 54.037 103.549 55.1763 103.712 56.218 103.582 56.3482 103.452 56.4459 102.866 56.4459 102.312 56.3157ZM92.0257 52.9302C92.9046 52.1815 92.9371 52.0187 92.9371 49.4146 92.872 43.0017 87.9892 34.18 84.4735 34.18 81.8693 34.18 80.8927 35.6774 81.1531 39.3559 81.3159 42.0577 81.8693 43.9132 83.4969 47.3638 86.1011 52.8651 89.5191 55.0787 92.0257 52.9302Z" transform="matrix(1 0 0 -1.00371 0.0406905 99)"/><path d="M176.597 31.1852C171.291 22.9169 165.203 19.5314 155.698 19.5314 151.108 19.5314 146.649 20.0848 132.977 22.2984 127.247 23.2424 120.346 24.219 114.422 24.9351 109.669 25.5211 104.623 25.3909 99.4802 24.6096 96.4202 24.1213 85.1896 21.452 85.4175 21.2567 85.4501 21.1916 87.6962 21.3869 90.3655 21.6474 104.233 23.0471 116.473 21.6799 129.07 17.3504 136.102 14.9416 138.087 14.3556 140.529 13.8348 148.472 12.1746 155.308 12.2397 160.711 13.965 167.71 16.2111 173.211 21.4846 176.564 29.167 177.671 31.7386 178.192 33.2035 177.997 33.2035 177.931 33.2035 177.313 32.292 176.597 31.1852Z" transform="matrix(1 0 0 -1.00371 0.0406905 99)"/><path d="M68.4903 19.5314C66.8952 19.1734 65.5605 18.034 64.9746 16.6017 63.7051 13.379 64.8118 11.2306 68.8483 9.17978 71.5176 7.81258 72.1687 6.60814 71.0294 5.17583 70.0528 4.00395 68.4577 4.16671 67.2207 5.63157L66.2116 6.80345 65.1699 6.11985C64.291 5.56646 64.1933 5.37115 64.4863 4.85031 64.6491 4.49223 65.3978 3.80863 66.1465 3.32035 67.2858 2.57164 67.8392 2.44143 69.7924 2.44143 73.601 2.44143 75.8471 4.32947 75.8471 7.58471 75.8471 9.99359 75.0333 11.0678 71.9734 12.6629 69.1088 14.1603 68.6205 14.616 68.6205 15.7879 68.6205 17.0249 69.2715 17.5783 70.7038 17.5783 71.7455 17.5783 72.2012 17.383 72.9499 16.5692 73.8614 15.5926 73.9265 15.5601 74.7078 16.0809 75.3588 16.5041 75.4565 16.7645 75.2286 17.1877 74.1544 19.1734 71.2572 20.215 68.4903 19.5314Z" transform="matrix(1 0 0 -1.00371 0.0406905 99)"/><path d="M108.041 19.5314C104.721 18.9781 102.28 16.8621 101.336 13.7046 100.034 9.24488 101.987 4.85031 106.056 3.02737 107.911 2.21356 112.11 2.27867 113.803 3.19014 116.896 4.7852 118.523 7.4545 118.523 10.9051 118.523 16.6343 113.901 20.4429 108.041 19.5314ZM112.11 16.6017C113.315 15.1694 113.706 13.5092 113.543 10.3842 113.413 7.22663 112.762 5.63157 111.297 4.75265 109.148 3.48311 106.837 5.01307 106.153 8.1381 105.665 10.4493 105.698 12.2723 106.316 14.2905 107 16.6668 107.976 17.5783 109.832 17.5783 111.036 17.5783 111.394 17.4155 112.11 16.6017Z" transform="matrix(1 0 0 -1.00371 0.0406905 99)"/><path d="M1.3021 18.3921 1.3021 17.2528 3.58076 17.2528 5.85943 17.2528 5.85943 9.92848 5.85943 2.60419 8.1381 2.60419 10.4168 2.60419 10.4168 9.92848 10.4168 17.2528 12.728 17.2528 15.0067 17.2528 14.909 18.327 14.8113 19.3687 8.073 19.4663 1.3021 19.5314 1.3021 18.3921Z" transform="matrix(1 0 0 -1.00371 0.0406905 99)"/><path d="M18.3596 19.0432C18.2293 18.7502 18.1968 15.7879 18.2945 12.435 18.3921 7.03132 18.4898 6.18496 19.0757 5.20838 20.9312 1.9857 27.1162 1.33465 29.818 4.0365 31.2829 5.50136 31.6084 7.51961 31.5107 13.9975L31.4131 19.3687 30.2737 19.3687 29.1344 19.3687 28.9716 13.021C28.874 9.53786 28.6787 6.41282 28.5485 6.11985 28.1904 5.4037 26.3349 4.7852 25.2932 5.04562 23.4377 5.53391 23.275 6.0222 23.1122 12.9884L22.9494 19.3687 20.7359 19.4663C18.9781 19.5314 18.5223 19.4663 18.3596 19.0432Z" transform="matrix(1 0 0 -1.00371 0.0406905 99)"/><path d="M36.7842 11.1004 36.7842 2.60419 38.9001 2.60419 41.016 2.60419 41.016 9.89593C41.016 14.616 41.1462 17.2853 41.3416 17.4155 41.9926 17.8062 44.3689 17.1877 45.1502 16.4064 45.9966 15.5601 46.1919 13.2488 45.4432 12.3048 44.9549 11.6538 43.5551 11.0678 42.4483 11.0678 42.0252 11.0678 41.6671 11.0027 41.6671 10.9376 41.6671 10.8725 42.546 8.98446 43.6528 6.7058L45.6385 2.60419 48.0474 2.60419C49.382 2.60419 50.4562 2.7344 50.4562 2.89716 50.4562 3.05993 49.6424 4.58989 48.6658 6.34772 47.6893 8.073 46.8755 9.60296 46.8755 9.73317 46.8755 9.86338 47.4614 10.2215 48.1776 10.547 49.7726 11.2306 50.4562 12.4676 50.4562 14.4858 50.4562 16.439 49.5448 17.7736 47.5591 18.6525 46.3221 19.2059 45.2153 19.3687 41.4392 19.4663L36.7842 19.5965 36.7842 11.1004Z" transform="matrix(1 0 0 -1.00371 0.0406905 99)"/><path d="M55.1763 19.1083C55.0787 18.8804 55.0461 15.1043 55.0787 10.7423L55.1763 2.76695 57.3899 2.6693 59.5709 2.57164 59.5709 11.0678 59.5709 19.5314 57.455 19.5314C56.0227 19.5314 55.274 19.4012 55.1763 19.1083Z" transform="matrix(1 0 0 -1.00371 0.0406905 99)"/><path d="M80.4044 11.0353 80.4044 2.57164 81.4787 2.6693 82.5203 2.76695 82.6831 7.81258 82.8459 12.8256 84.9292 7.87768C86.0686 5.14328 87.1102 2.86461 87.2404 2.76695 87.3381 2.70185 88.3798 4.94797 89.5191 7.74747 90.6585 10.547 91.7001 12.9884 91.8629 13.1512 91.9931 13.3465 92.1233 11.0353 92.1233 8.04044L92.1233 2.60419 94.402 2.60419 96.6806 2.60419 96.6806 11.0678 96.6806 19.5314 94.4345 19.5314 92.221 19.5314 90.3329 14.9741C89.2913 12.4676 88.4123 10.4168 88.3798 10.4168 88.3472 10.4168 87.4358 12.4676 86.3941 14.9741L84.4735 19.5314 82.4552 19.5314 80.4044 19.5314 80.4044 11.0353Z" transform="matrix(1 0 0 -1.00371 0.0406905 99)"/><path d="M126.466 15.4624C126.173 14.258 126.043 14.1603 124.838 13.9975L123.536 13.8348 124.611 13.1837C125.62 12.5652 125.685 12.4676 125.457 11.2306L125.262 9.92848 126.043 10.6772C127.019 11.5561 127.117 11.5561 128.289 10.7097 129.331 9.96104 129.396 10.0587 128.842 11.5887 128.517 12.5652 128.549 12.6954 129.428 13.4767L130.372 14.2905 129.038 14.3231C127.801 14.3231 127.671 14.4207 127.247 15.5275L126.792 16.7319 126.466 15.4624Z" transform="matrix(1 0 0 -1.00371 0.0406905 99)"/><path d="M166.994 13.379C166.994 12.142 166.636 11.7189 165.496 11.7189 164.129 11.7189 164.097 11.3933 165.334 10.6446 166.213 10.1238 166.278 9.99359 165.985 9.01702 165.529 7.3894 165.627 7.29174 166.636 8.26831L167.612 9.17978 168.589 8.49618C169.663 7.71492 169.793 7.87768 169.24 9.34254 168.947 10.1564 169.012 10.3191 169.989 11.1655L171.063 12.1095 169.696 11.9142C168.394 11.7189 168.328 11.7514 167.938 12.8582 167.482 14.0952 166.994 14.3556 166.994 13.379Z" transform="matrix(1 0 0 -1.00371 0.0406905 99)"/><path d="M136.525 11.2306C136.329 10.1564 136.264 10.0912 134.962 10.0912L133.628 10.0587 134.734 9.17978C135.711 8.36597 135.809 8.1381 135.581 7.19408 135.353 6.18496 135.385 6.1524 136.004 6.47793 136.395 6.67324 136.785 6.99877 136.883 7.16153 137.013 7.3894 137.501 7.25919 138.218 6.83601 139.455 6.05475 139.455 6.0222 138.966 7.4545 138.641 8.43107 138.673 8.59383 139.52 9.5053L140.464 10.4819 139.194 10.3517C138.022 10.2215 137.892 10.2866 137.501 11.2957 137.241 11.8816 136.981 12.3699 136.883 12.3699 136.818 12.3699 136.655 11.8491 136.525 11.2306Z" transform="matrix(1 0 0 -1.00371 0.0406905 99)"/><path d="M156.772 9.92848C156.577 8.88681 156.447 8.78915 155.438 8.78915 154.071 8.78915 154.038 8.59383 155.145 7.71492 155.893 7.12898 155.959 6.90111 155.796 5.72922L155.568 4.39457 156.545 5.33859 157.521 6.25006 158.465 5.56646C159.8 4.62244 159.865 4.68755 159.279 6.0873 158.791 7.25919 158.823 7.32429 159.637 8.04044 160.776 9.01702 160.711 9.21233 159.344 8.98446 158.302 8.78915 158.205 8.8217 157.749 9.92848 157.489 10.547 157.196 11.0678 157.13 11.0678 157.033 11.0678 156.87 10.547 156.772 9.92848Z" transform="matrix(1 0 0 -1.00371 0.0406905 99)"/><path d="M146.681 9.60296C146.518 8.78915 146.291 8.46363 145.835 8.43107 145.477 8.39852 145.054 8.33342 144.858 8.30086 144.695 8.26831 144.337 8.20321 144.142 8.17065 143.914 8.17065 144.207 7.84513 144.793 7.48705 145.835 6.83601 145.867 6.73835 145.672 5.43625L145.444 4.06905 146.225 4.81776C147.169 5.69667 147.56 5.69667 148.667 4.98052 149.513 4.42713 149.546 4.42713 149.318 4.98052 148.667 6.7058 148.699 7.09642 149.546 7.64982 150.685 8.39852 150.62 8.69149 149.253 8.52873 148.211 8.39852 148.081 8.49618 147.625 9.57041 147.365 10.2215 147.072 10.7423 147.007 10.7423 146.942 10.7423 146.779 10.2215 146.681 9.60296Z" transform="matrix(1 0 0 -1.00371 0.0406905 99)"/></g></svg>